<svg width="28" height="28" viewBox="0 0 28 28" fill="none" xmlns="http://www.w3.org/2000/svg">
<path d="M14 7.51334V11.3983" stroke="white" stroke-width="2" stroke-miterlimit="10" stroke-linecap="round"/>
<path d="M14.0233 2.33334C9.72999 2.33334 6.25332 5.81001 6.25332 10.1033V12.5533C6.25332 13.3467 5.92665 14.5367 5.51832 15.2133L4.03665 17.6867C3.12665 19.215 3.75665 20.9183 5.43665 21.4783C11.0133 23.3333 17.045 23.3333 22.6217 21.4783C24.1967 20.9533 24.8733 19.11 24.0217 17.6867L22.54 15.2133C22.1317 14.5367 21.805 13.335 21.805 12.5533V10.1033C21.7933 5.83334 18.2933 2.33334 14.0233 2.33334Z" stroke="white" stroke-width="2" stroke-miterlimit="10" stroke-linecap="round"/>
<path d="M17.885 21.9567C17.885 24.0917 16.135 25.8417 14 25.8417C12.9383 25.8417 11.9583 25.3983 11.2583 24.6983C10.5583 23.9983 10.115 23.0183 10.115 21.9567" stroke="white" stroke-width="2" stroke-miterlimit="10"/>
</svg>
